<?xml version="1.0" standalone="no"?>
<!DOCTYPE svg PUBLIC "-//W3C//DTD SVG 20010904//EN"
 "http://www.w3.org/TR/2001/REC-SVG-20010904/DTD/svg10.dtd">
<svg version="1.0" xmlns="http://www.w3.org/2000/svg"
 width="1024.000000pt" height="1024.000000pt" viewBox="0 0 1024.000000 1024.000000"
 preserveAspectRatio="xMidYMid meet">

<g transform="translate(0.000000,1024.000000) scale(0.100000,-0.100000)"
fill="#000000" stroke="none">
<path d="M4745 8829 c-739 -62 -1412 -286 -1990 -664 -273 -178 -598 -453
-827 -699 l-82 -88 49 25 c28 14 108 52 178 86 95 45 143 74 185 114 338 317
762 598 1152 765 460 197 1028 316 1610 338 543 20 1189 -88 1680 -281 149
-59 462 -215 610 -305 290 -176 571 -396 838 -654 92 -89 317 -335 311 -340
-2 -2 -31 -8 -63 -14 -56 -11 -60 -11 -80 11 -260 287 -433 444 -751 683 -127
96 -255 184 -370 254 -62 38 -334 190 -340 190 -2 0 -129 -187 -285 -415 -175
-258 -288 -415 -298 -415 -8 0 -69 16 -135 36 -65 20 -162 47 -215 59 -70 16
-96 26 -94 36 2 8 27 56 55 107 54 98 89 143 251 319 55 59 120 140 146 179
50 76 86 181 76 220 -9 32 -58 56 -131 61 -54 4 -67 1 -135 -34 -139 -72 -703
-419 -758 -467 -18 -16 -54 -58 -79 -93 -28 -39 -60 -71 -84 -83 -66 -34 -70
-31 -64 58 3 42 12 214 20 382 8 168 18 325 21 349 l6 44 -214 -6 c-597 -18
-1133 -140 -1616 -367 -167 -79 -310 -169 -392 -246 -41 -39 -113 -93 -160
-121 -110 -65 -260 -162 -260 -168 0 -3 27 8 61 25 150 76 387 170 428 170 60
0 78 -31 306 -535 67 -148 139 -316 161 -372 l39 -101 70 -7 c240 -22 455
-100 607 -220 62 -49 151 -151 183 -210 l19 -37 -39 -33 c-22 -19 -43 -34 -47
-35 -3 0 -19 24 -36 53 -176 311 -639 449 -1120 332 -363 -88 -640 -309 -788
-630 -74 -161 -121 -420 -109 -605 12 -191 65 -389 138 -519 103 -180 260
-298 514 -386 96 -33 107 -42 28 -26 -22 5 -78 17 -125 26 -47 9 -227 50 -400
91 -345 82 -801 181 -1300 284 -55 11 -99 15 -104 10 -17 -17 63 -480 140
-799 24 -102 48 -196 54 -208 11 -25 83 -64 238 -128 114 -46 390 -135 421
-135 14 0 39 -40 101 -166 90 -182 212 -372 319 -498 95 -111 288 -298 391
-377 456 -352 1179 -608 1905 -673 934 -84 1887 70 2580 416 283 141 510 301
705 497 205 206 330 384 467 668 64 132 64 133 106 143 87 21 386 124 486 168
148 65 148 65 182 212 86 368 154 708 165 829 l7 69 -49 -10 c-27 -5 -87 -18
-134 -29 -47 -10 -195 -41 -330 -68 -135 -28 -342 -71 -460 -97 -118 -25 -253
-55 -300 -65 -47 -10 -96 -18 -110 -19 -23 0 -21 3 23 48 l48 49 -43 39 c-24
22 -73 64 -110 94 -38 29 -68 57 -68 62 0 5 11 25 24 46 76 120 140 340 155
535 27 333 -63 670 -234 881 -279 341 -871 410 -1352 156 -147 -77 -244 -152
-399 -309 -100 -101 -146 -141 -156 -135 -7 4 -35 25 -63 47 -68 53 -187 112
-292 143 -109 32 -311 44 -429 24 -210 -33 -405 -127 -556 -268 l-46 -43 -17
57 -16 57 33 34 c46 48 209 155 293 193 236 106 532 126 782 54 99 -28 240
-92 289 -129 l33 -25 113 113 c231 232 483 364 797 416 366 62 709 -12 947
-203 179 -144 293 -326 358 -574 33 -124 56 -288 56 -397 0 -90 -22 -263 -43
-342 -9 -32 -10 -53 -4 -53 5 0 91 20 191 44 286 70 762 155 777 138 6 -7 23
-143 35 -285 6 -66 9 -78 23 -73 9 2 75 21 146 42 72 20 132 38 133 40 8 6
-19 83 -62 179 -15 33 -46 119 -70 190 l-43 130 -44 -3 c-24 -2 -143 -24 -264
-48 -121 -25 -312 -63 -425 -85 -113 -22 -215 -42 -226 -45 -27 -7 -41 31 -15
41 70 29 695 183 855 211 38 7 38 7 32 46 -13 81 -159 438 -174 424 -2 -3 14
-60 36 -128 57 -174 84 -269 79 -274 -2 -3 -135 -25 -294 -49 -159 -24 -338
-53 -397 -64 -59 -12 -109 -21 -111 -21 -2 0 -6 30 -10 68 -12 123 -34 246
-60 335 -14 48 -25 90 -25 93 0 2 106 -50 236 -117 131 -67 239 -118 244 -113
25 27 166 450 206 618 10 42 21 76 25 76 14 0 118 -186 207 -370 109 -225 169
-373 257 -633 37 -109 70 -196 74 -195 93 47 121 64 121 74 0 6 -21 72 -46
145 -293 857 -828 1641 -1494 2190 -295 244 -534 401 -839 554 -418 209 -826
333 -1351 411 -157 23 -211 26 -525 29 -192 2 -399 -1 -460 -6z m-475 -444
c28 -25 57 -45 64 -45 7 0 30 14 51 30 21 17 43 30 49 30 6 0 39 -12 73 -27
70 -31 72 -37 49 -115 -25 -81 -3 -90 150 -62 31 6 32 4 54 -53 12 -32 24 -72
27 -90 5 -30 2 -33 -51 -63 -75 -43 -73 -63 9 -107 33 -17 61 -37 63 -43 6
-17 -71 -190 -85 -190 -7 0 -35 9 -63 20 -64 25 -74 25 -111 -2 -29 -22 -29
-23 -23 -94 8 -85 9 -83 -123 -120 -94 -26 -92 -27 -118 56 -10 30 -21 59 -25
63 -4 4 -31 14 -61 22 l-54 14 -51 -50 -51 -51 -72 36 c-75 38 -111 67 -111
89 0 7 16 37 35 67 31 48 33 56 21 74 -11 17 -27 22 -87 26 l-74 5 -13 40 c-8
22 -16 63 -19 90 l-5 51 38 17 c22 9 56 23 77 31 33 14 37 19 37 52 0 24 -9
49 -25 70 -14 18 -25 35 -25 39 0 3 23 30 51 60 l50 53 67 -23 c79 -28 91 -22
99 49 6 54 12 59 78 79 28 9 51 16 52 16 1 1 25 -19 53 -44z m2000 -29 c0 -44
-280 -366 -319 -366 -8 0 -36 20 -61 44 -25 25 -66 56 -92 69 l-47 25 84 40
c46 22 134 75 196 118 115 80 188 110 222 92 9 -5 17 -15 17 -22z m-515 -314
c51 -38 104 -119 105 -157 0 -11 -12 -38 -26 -59 -26 -37 -28 -38 -41 -20 -8
10 -28 46 -46 78 -28 53 -81 105 -143 142 -18 10 -16 13 16 33 49 30 78 26
135 -17z m-162 -112 c82 -52 135 -147 117 -211 -31 -106 -144 -196 -261 -206
-72 -7 -126 6 -237 58 l-87 41 60 20 c105 35 128 60 165 182 16 49 30 73 65
105 57 53 107 56 178 11z m1598 10 c20 -11 64 -93 129 -239 21 -47 59 -133 84
-191 26 -58 68 -154 93 -215 107 -258 107 -258 70 -301 -41 -48 -88 -44 -377
30 -313 80 -680 180 -740 201 -83 29 -111 80 -74 133 15 22 679 557 719 580
25 14 70 15 96 2z m-3809 -209 c31 -37 338 -512 338 -523 0 -3 -19 -13 -42
-22 -34 -14 -43 -15 -54 -4 -13 14 -208 353 -288 501 l-48 87 30 0 c23 0 39
-10 64 -39z m2203 -370 c238 -39 432 -92 635 -173 136 -55 330 -150 405 -197
l46 -29 -58 -12 c-315 -61 -548 -186 -776 -417 l-97 -98 -27 18 c-199 127
-487 190 -728 158 -152 -20 -318 -68 -427 -122 -32 -16 -59 -29 -62 -29 -2 0
-8 12 -14 28 -15 42 -95 143 -170 214 -90 84 -200 152 -325 199 -99 38 -282
89 -318 89 -41 0 -13 18 129 87 313 152 680 257 1042 298 183 21 573 13 745
-14z m2497 -233 c47 -14 52 -24 41 -69 -9 -32 -12 -34 -58 -39 l-48 -5 -20
-74 c-16 -60 -28 -81 -60 -113 -40 -39 -41 -39 -24 -68 12 -20 17 -51 17 -104
l0 -77 35 -20 c29 -17 35 -27 35 -54 0 -21 -9 -44 -24 -62 l-24 -28 -23 30
c-13 17 -47 53 -77 81 l-54 50 12 43 c16 60 4 126 -31 166 -16 18 -29 39 -29
47 0 26 38 65 69 71 36 8 49 30 61 105 8 48 16 63 49 95 44 41 80 47 153 25z
m513 -213 c21 -16 39 -41 46 -65 11 -36 9 -49 -14 -119 -32 -94 -33 -115 -7
-148 21 -27 25 -59 12 -81 -5 -7 -33 -20 -62 -30 -52 -16 -55 -19 -77 -77 -33
-88 -43 -104 -79 -125 -37 -23 -119 -26 -174 -5 -38 14 -38 17 -14 83 14 37
20 43 38 37 80 -23 82 -22 107 45 14 40 38 79 63 104 35 37 40 47 42 96 1 30
12 82 23 114 12 33 21 63 21 67 0 5 -18 20 -40 34 -43 27 -49 47 -29 103 l11
31 49 -19 c28 -10 66 -30 84 -45z m-5000 -255 c122 -13 195 -33 290 -79 259
-128 369 -377 345 -776 -10 -148 -40 -332 -71 -427 -30 -92 -94 -214 -146
-282 -25 -32 -41 -61 -36 -65 5 -3 69 -53 142 -111 l133 -105 -34 -28 c-18
-16 -84 -64 -146 -108 l-112 -81 -42 33 c-22 18 -91 78 -152 132 -61 55 -141
124 -178 154 l-68 55 -81 -11 c-113 -15 -220 -14 -323 4 -279 49 -446 201
-517 470 -27 101 -37 319 -20 437 15 101 80 300 127 388 l35 65 -40 -45 c-92
-104 -183 -289 -216 -440 -22 -105 -31 -318 -16 -420 15 -101 56 -219 102
-295 43 -72 132 -160 203 -204 68 -41 197 -86 291 -102 96 -16 332 -14 430 4
44 8 85 12 90 8 6 -4 83 -67 173 -140 132 -108 161 -135 151 -147 -9 -11 -40
9 -176 112 l-164 125 -44 -7 c-25 -3 -45 -10 -45 -14 0 -4 30 -40 66 -79 36
-39 58 -68 48 -64 -29 10 -104 54 -157 91 l-48 35 -157 2 c-186 4 -300 25
-416 79 -144 66 -251 158 -316 270 -40 71 -86 215 -101 315 -19 132 -7 362 26
485 47 179 138 339 266 468 224 225 558 335 904 298z m3556 -16 c364 -74 560
-334 576 -764 12 -317 -49 -564 -193 -777 l-62 -92 51 -43 c29 -24 85 -70 125
-102 40 -32 72 -62 70 -66 -5 -14 -268 -211 -276 -206 -4 2 -108 88 -232 190
-173 144 -230 185 -246 181 -128 -30 -341 -33 -474 -5 -158 32 -270 99 -349
208 -25 33 -48 59 -52 56 -4 -2 -17 -33 -29 -68 -26 -79 -20 -94 68 -179 79
-75 195 -131 328 -159 86 -17 122 -19 274 -15 100 4 205 13 245 22 68 15 71
15 100 -7 73 -53 325 -263 325 -270 0 -5 -7 -11 -15 -14 -15 -6 -74 37 -248
184 -84 71 -89 73 -127 67 -22 -4 -40 -9 -40 -12 0 -8 60 -84 99 -125 l35 -38
-44 0 c-41 0 -48 5 -118 75 l-75 74 -66 -9 c-88 -13 -273 -13 -347 1 -124 21
-249 75 -349 149 -53 39 -143 142 -156 178 -3 9 6 43 21 77 15 33 33 92 41
130 15 80 18 266 6 402 l-8 91 117 88 c112 84 116 88 97 103 -10 9 -43 37 -73
63 l-53 46 38 69 c20 37 49 86 64 108 15 22 30 47 35 55 10 18 -72 -65 -132
-134 l-43 -50 -31 31 -31 31 31 39 c149 186 430 358 677 414 130 29 312 31
446 3z m-1853 -390 c94 -21 197 -73 285 -143 42 -34 77 -66 77 -69 0 -4 -16
-20 -35 -35 l-35 -28 -57 50 c-62 56 -170 112 -253 132 -32 8 -108 14 -180 14
-100 0 -141 -5 -207 -24 -355 -100 -570 -392 -523 -707 41 -274 259 -501 550
-575 69 -18 104 -21 199 -17 202 9 343 71 487 213 63 63 89 98 122 166 47 95
72 193 72 287 0 59 2 64 36 95 70 61 67 65 61 -89 -9 -237 -62 -368 -207 -515
-114 -115 -233 -182 -402 -225 -98 -26 -283 -23 -381 4 -372 105 -626 440
-604 792 8 109 23 175 61 249 97 194 247 320 475 397 153 53 305 62 459 28z
m673 -216 c27 -18 49 -37 49 -43 0 -6 -63 -68 -139 -138 -194 -177 -584 -567
-715 -714 -60 -68 -112 -123 -116 -123 -7 0 -463 505 -468 518 -4 12 208 166
217 156 4 -5 56 -70 116 -144 59 -74 114 -141 120 -149 11 -11 42 11 181 126
210 173 684 543 696 543 5 0 31 -15 59 -32z m-1276 -814 c89 -104 174 -207
190 -228 l30 -39 -30 7 c-58 13 -171 77 -228 129 -90 82 -153 208 -171 342
l-5 40 27 -31 c15 -17 99 -116 187 -220z m-381 -112 c121 -180 299 -326 486
-397 97 -37 107 -46 30 -28 -177 40 -355 138 -489 267 -62 60 -121 131 -121
147 0 9 51 71 55 67 2 -2 19 -27 39 -56z m1791 -427 c55 -30 95 -55 90 -55 -6
0 -46 9 -90 19 -96 23 -172 55 -203 84 l-22 21 -98 -32 c-92 -31 -341 -86
-349 -78 -2 2 34 15 79 29 99 31 179 77 273 157 l70 59 75 -74 c54 -54 103
-90 175 -130z m2938 118 c-14 -90 -71 -365 -109 -533 -36 -157 -49 -199 -67
-214 -34 -29 -256 -137 -440 -215 -455 -193 -898 -298 -1512 -361 -268 -27
-745 -56 -1155 -71 -450 -16 -1602 -17 -1890 -1 -808 45 -1354 155 -1954 392
-164 65 -524 238 -543 262 -22 26 -163 663 -163 735 0 17 6 23 23 23 54 0 678
-148 932 -222 142 -40 179 -55 115 -44 -19 3 -129 22 -245 41 -115 19 -320 57
-455 84 -135 27 -247 47 -249 45 -4 -4 34 -178 111 -506 l29 -126 184 -81
c219 -97 311 -132 515 -199 553 -181 973 -261 1645 -314 219 -18 1774 -17
2080 0 1200 68 1779 166 2455 415 105 38 325 129 381 158 43 21 39 10 118 359
33 146 63 273 67 284 6 15 4 17 -15 11 -28 -9 -238 -53 -541 -114 -262 -53
-475 -85 -530 -79 -57 5 334 105 960 244 91 20 179 40 195 44 56 14 63 12 58
-17z m-2648 -223 c53 -11 108 -20 121 -20 58 0 13 -18 -133 -53 -498 -119
-925 -167 -1483 -167 -758 1 -1356 74 -1657 203 -29 12 -53 25 -53 29 0 4 21
5 48 3 26 -3 83 -7 128 -9 137 -8 303 -48 471 -113 l92 -35 125 76 c109 67
128 75 150 66 45 -17 255 -49 431 -66 136 -13 243 -15 540 -11 436 7 696 31
950 91 127 30 152 30 270 6z m445 -38 l22 -18 -58 -26 c-71 -32 -274 -83 -364
-93 -36 -3 -116 -13 -178 -21 -63 -9 -116 -14 -118 -11 -2 2 31 12 73 22 43
10 153 42 246 71 191 61 302 93 333 93 12 1 32 -7 44 -17z m-4377 -133 c52
-14 112 -71 133 -125 33 -87 1 -218 -69 -285 l-35 -33 33 -23 c45 -30 57 -79
25 -105 -33 -27 -47 -22 -71 24 -27 53 -42 64 -102 77 -131 29 -197 104 -197
225 0 174 131 287 283 245z m6201 -56 c-4 -16 -13 -33 -20 -39 -20 -16 -392
-139 -399 -132 -4 3 -2 24 4 45 l11 40 107 31 c214 62 278 80 291 81 9 1 10
-7 6 -26z m-6892 -30 l186 -48 10 -50 c6 -27 9 -51 8 -52 -2 -3 -85 26 -318
109 -49 17 -88 33 -88 37 0 3 -3 16 -6 29 -4 15 -2 22 7 22 8 0 98 -21 201
-47z m5522 11 c34 -33 9 -94 -38 -94 -12 0 -27 5 -34 12 -20 20 -14 65 10 82
28 20 43 20 62 0z m192 -60 c6 -35 7 -35 45 -29 29 5 39 3 39 -7 0 -7 3 -23 6
-34 5 -18 0 -23 -33 -31 -42 -10 -43 -15 -20 -110 l12 -48 43 2 c23 1 42 -1
42 -5 0 -4 3 -17 6 -29 12 -43 -95 -71 -143 -38 -24 17 -36 49 -54 143 -10 54
-14 62 -34 62 -41 0 -50 64 -10 74 21 5 25 12 25 46 0 39 1 40 35 40 31 0 35
-3 41 -36z m424 21 c0 -27 -61 -317 -77 -364 -8 -25 -22 -54 -32 -65 -21 -24
-65 -46 -91 -46 -17 0 -20 6 -20 38 0 32 5 39 33 52 53 25 48 48 -43 197 -46
75 -78 139 -74 143 5 5 27 10 49 12 l40 3 47 -92 c52 -102 50 -102 68 30 10
75 16 90 34 97 34 14 66 12 66 -5z m-4550 -62 c0 -21 -7 -110 -15 -198 -8 -88
-15 -171 -15 -184 0 -22 -3 -23 -42 -17 -23 4 -43 8 -45 10 -3 3 23 302 33
379 l6 47 39 0 c38 0 39 -1 39 -37z m3724 15 c3 -7 7 -26 10 -41 6 -26 9 -27
41 -21 26 5 35 3 35 -7 0 -8 3 -24 6 -35 5 -18 0 -22 -30 -28 -41 -8 -43 -21
-22 -111 11 -47 13 -50 44 -51 34 0 52 -16 52 -45 0 -36 -106 -53 -147 -24
-21 15 -29 42 -51 165 -6 35 -12 45 -27 45 -15 0 -21 8 -23 33 -3 26 0 32 17
32 16 0 20 8 23 42 2 35 7 43 28 49 37 10 40 10 44 -3z m-3585 -12 c16 -19 10
-66 -10 -79 -20 -13 -72 11 -77 36 -8 42 60 75 87 43z m-760 -25 c12 -8 12
-23 1 -104 -15 -111 -12 -127 29 -127 36 0 46 16 55 90 15 126 14 123 58 117
22 -3 41 -7 42 -9 3 -3 -18 -186 -30 -264 -4 -32 -5 -32 -44 -22 -23 6 -40 16
-40 25 0 10 -4 11 -19 3 -11 -5 -38 -10 -59 -10 -33 0 -45 6 -66 31 -29 34
-33 75 -16 175 19 105 18 104 48 104 15 0 33 -4 41 -9z m3157 -20 c66 -41 104
-117 104 -210 0 -72 -15 -123 -45 -160 -14 -16 -25 -31 -25 -35 0 -3 18 -11
41 -17 49 -15 68 -49 48 -86 -17 -33 -58 -42 -75 -17 -40 59 -71 74 -150 74
-69 0 -111 17 -151 64 -104 117 -71 321 62 390 44 23 152 21 191 -3z m1419 10
c11 -19 55 -285 47 -292 -8 -7 -82 -20 -82 -14 0 3 -11 68 -25 147 -14 78 -22
145 -17 149 4 4 18 9 32 12 14 2 28 5 32 6 4 0 9 -3 13 -8z m-2839 -20 c44
-20 85 -66 104 -116 19 -50 14 -159 -10 -212 -27 -61 -46 -82 -95 -104 -99
-46 -217 0 -258 101 -37 89 -24 207 30 278 31 41 94 72 148 72 22 0 59 -9 81
-19z m-808 -43 c3 -31 7 -38 25 -38 34 0 46 -13 40 -43 -5 -23 -10 -27 -38
-27 -33 0 -34 -1 -40 -53 -4 -29 -5 -66 -3 -82 3 -26 8 -30 35 -33 25 -3 34
-9 39 -28 8 -33 4 -36 -55 -42 -43 -4 -53 -1 -75 21 -24 25 -26 32 -26 126 0
91 -2 100 -20 106 -14 4 -20 15 -20 36 0 26 3 29 30 29 23 0 30 5 30 19 0 39
11 52 44 49 28 -3 31 -7 34 -40z m-546 22 c20 -6 47 -23 59 -38 20 -25 21 -35
15 -119 -10 -142 -13 -153 -48 -153 -16 0 -31 6 -34 15 -5 11 -11 12 -24 5
-21 -11 -80 -13 -105 -4 -19 8 -45 55 -45 83 0 12 13 35 29 53 24 27 36 32 90
36 33 2 61 8 61 13 0 5 -10 19 -21 30 -18 18 -29 21 -70 16 -49 -6 -49 -6 -49
24 0 21 6 32 23 39 30 12 75 12 119 0z m-1318 -59 c157 -54 171 -61 185 -89 8
-18 12 -35 8 -38 -6 -7 -123 30 -264 83 -80 31 -93 39 -102 66 -13 36 -13 37
-3 37 4 0 83 -27 176 -59z m5108 31 c10 -8 22 -30 28 -48 14 -41 39 -216 33
-226 -2 -5 -22 -8 -43 -8 -45 0 -46 2 -56 108 -8 92 -28 121 -70 106 -33 -11
-35 -29 -21 -161 l8 -73 -44 0 -45 0 -12 98 c-6 53 -12 120 -13 147 l-2 50 38
3 c30 3 37 0 37 -14 0 -15 5 -13 28 8 42 40 96 44 134 10z m1692 1 c-4 -16
-10 -32 -15 -37 -19 -21 -484 -184 -495 -173 -8 7 23 81 37 88 8 5 88 30 179
58 91 27 188 58 215 69 73 29 87 28 79 -5z m-2034 -28 c17 -9 33 -28 39 -47
13 -42 33 -227 26 -239 -8 -12 -58 -12 -71 1 -7 7 -23 3 -49 -10 -47 -24 -57
-25 -95 -5 -45 23 -55 83 -23 131 16 25 80 54 118 54 28 0 29 3 15 31 -12 22
-61 26 -106 9 -21 -8 -29 -8 -36 2 -18 29 -8 49 35 68 51 23 108 25 147 5z
m-3074 -82 c-4 -49 -9 -116 -12 -150 l-6 -61 -37 5 c-20 3 -39 8 -42 12 -3 3
-1 68 4 144 l11 137 44 0 44 0 -6 -87z m337 71 c10 -3 24 -41 38 -100 13 -52
25 -94 28 -94 4 0 19 41 35 90 l28 90 44 0 c24 0 44 -2 44 -5 0 -10 -103 -263
-131 -323 -32 -67 -64 -92 -118 -92 -36 0 -40 6 -34 48 4 24 10 32 27 32 62 1
64 34 11 196 -26 76 -49 145 -51 152 -6 13 50 17 79 6z m2489 -94 c3 -52 9
-121 13 -152 l6 -58 -41 0 c-30 0 -40 4 -40 16 0 12 -6 11 -32 -8 -46 -32
-103 -31 -133 4 -24 28 -30 61 -38 205 l-4 71 36 5 c20 2 39 2 43 -2 4 -3 10
-49 14 -101 9 -128 22 -148 76 -119 20 11 20 17 14 119 -8 119 -7 120 54 117
24 -2 25 -5 32 -97z m-1614 36 c1 -2 13 -45 26 -97 l24 -94 29 95 30 95 43 3
c38 3 42 1 36 -15 -4 -10 -30 -80 -58 -156 l-52 -138 -35 3 -35 3 -48 148
c-27 82 -45 153 -42 159 5 8 72 3 82 -6z m376 0 c50 -21 76 -60 76 -116 0 -45
-2 -48 -31 -54 -17 -3 -56 -6 -85 -6 -59 0 -69 -13 -34 -45 19 -18 57 -17 118
1 20 6 22 3 22 -28 0 -28 -5 -37 -25 -46 -36 -17 -120 -15 -154 3 -36 18 -71
88 -71 141 0 56 37 123 80 146 42 22 60 22 104 4z m206 -24 l5 -24 24 26 c24
26 74 36 85 17 3 -5 3 -23 0 -40 -6 -27 -11 -31 -37 -31 -56 0 -67 -21 -67
-127 l0 -93 -45 0 -45 0 0 143 c0 79 3 147 7 151 4 4 21 6 37 4 22 -2 32 -9
36 -26z m2749 -579 c-53 -94 -117 -193 -173 -267 l-51 -68 -73 6 -74 7 -116
-113 c-163 -157 -384 -320 -412 -303 -14 9 23 50 95 107 196 156 386 351 531
545 82 110 85 112 131 118 27 4 75 13 108 19 33 7 62 11 64 10 2 -2 -12 -29
-30 -61z m-5771 36 c44 -8 68 -18 78 -33 8 -12 46 -64 84 -116 39 -52 70 -97
70 -100 0 -11 -31 -164 -34 -167 -9 -10 -203 261 -286 401 l-24 39 25 -6 c13
-3 52 -11 87 -18z m885 -69 c32 -12 70 -32 84 -45 l27 -22 -42 -26 c-22 -15
-91 -74 -152 -132 -61 -58 -115 -105 -120 -105 -5 0 -38 24 -73 54 l-64 55
-48 -49 -48 -48 21 -29 c11 -15 63 -70 114 -121 l94 -93 80 93 c44 51 119 143
167 204 48 61 93 116 100 122 22 18 38 -29 44 -129 12 -184 -50 -300 -196
-367 -46 -21 -72 -25 -147 -26 -82 0 -96 2 -155 31 -87 43 -139 90 -172 155
-82 161 -37 338 111 440 103 71 249 86 375 38z m337 -355 l0 -305 -25 0 -25 0
0 305 0 305 25 0 25 0 0 -305z m841 274 c14 -7 17 -45 23 -273 4 -146 4 -270
1 -276 -3 -5 -46 -10 -95 -10 l-88 0 -7 -74 c-5 -54 -13 -80 -26 -92 -17 -15
-21 -14 -59 16 l-41 32 -214 6 -215 5 -1 271 c-1 149 -3 300 -4 336 -2 36 -1
69 2 73 6 10 703 -3 724 -14z m2152 -86 c4 -58 7 -202 7 -320 0 -204 -1 -213
-19 -213 -11 0 -22 3 -24 8 -3 4 -8 148 -12 320 l-7 312 24 0 c25 0 25 -2 31
-107z m524 15 l82 -93 -47 -7 c-54 -7 -262 -10 -262 -3 0 2 19 22 42 44 53 49
44 62 -17 27 l-45 -27 0 70 0 70 38 4 c127 13 119 16 209 -85z m159 56 c7 -38
1 -121 -10 -131 -7 -7 -166 146 -166 159 0 5 38 8 85 8 l84 0 7 -36z m-2656
-329 l0 -345 -25 0 -25 0 0 345 0 345 25 0 25 0 0 -345z m505 316 c101 -44
174 -147 182 -256 7 -80 -10 -137 -54 -186 -76 -84 -181 -119 -295 -99 -79 15
-125 39 -171 89 -148 164 -67 416 150 471 51 12 137 4 188 -19z m505 -336 c0
-350 -1 -365 -19 -375 -11 -5 -24 -10 -29 -10 -6 0 -9 151 -10 375 l0 375 29
0 29 0 0 -365z m412 316 c15 -17 28 -43 28 -56 0 -65 -53 -128 -118 -141 -58
-12 -132 54 -132 117 0 32 37 89 70 107 15 8 45 11 74 9 40 -4 55 -10 78 -36z
m778 -56 l0 -75 -67 4 c-38 2 -70 5 -73 5 -4 1 132 141 137 141 2 0 3 -34 3
-75z m640 -66 c0 -3 -31 -7 -70 -8 l-70 -2 0 78 0 77 70 -69 c39 -38 70 -72
70 -76z m-1058 31 c53 -15 88 -61 88 -116 0 -57 -11 -77 -56 -104 -28 -18 -45
-21 -87 -17 -42 4 -56 10 -84 41 -58 63 -42 144 37 184 51 25 52 25 102 12z
m-265 -67 c12 -8 19 -21 16 -29 -7 -18 -63 -18 -87 -1 -16 12 -17 16 -5 35 15
23 34 22 76 -5z m709 -55 c113 -192 145 -250 142 -256 -2 -4 -72 62 -156 146
l-153 152 71 0 70 0 26 -42z m394 36 c0 -18 -164 -324 -172 -322 -9 3 -177
305 -178 321 0 4 79 7 175 7 96 0 175 -3 175 -6z m218 -3 c-4 -13 -338 -352
-338 -344 0 10 151 295 172 326 18 25 24 27 95 27 41 0 73 -4 71 -9z m-1268
-51 c23 -12 18 -34 -18 -72 -25 -27 -126 -81 -173 -93 -24 -6 -26 -9 -21 -54
7 -82 -43 -131 -133 -131 -83 0 -135 45 -135 118 0 95 112 150 217 107 19 -8
37 -15 38 -15 2 0 11 20 20 44 19 49 65 81 137 95 24 5 44 9 46 10 2 1 12 -4
22 -9z m-803 -252 c59 -50 111 -111 119 -144 3 -12 1 -32 -5 -43 -11 -21 -60
-51 -81 -51 -6 0 -35 22 -63 48 -29 27 -73 65 -99 86 -27 21 -48 43 -48 48 0
15 93 97 110 98 8 0 38 -19 67 -42z m983 14 l45 -7 3 -61 3 -62 -53 -5 c-29
-4 -97 -9 -151 -13 l-99 -7 3 74 c1 41 4 77 6 82 5 9 181 8 243 -1z m-2880
-184 c186 -92 286 -131 486 -191 869 -261 2011 -199 2744 150 119 56 140 63
175 57 47 -7 120 -37 129 -53 5 -8 -39 -34 -126 -75 -733 -350 -1704 -458
-2578 -285 -347 69 -711 196 -987 347 -68 37 -123 70 -123 73 0 6 112 58 120
56 3 -1 75 -37 160 -79z"/>
<path d="M4170 8148 c-26 -14 -57 -41 -75 -66 -26 -38 -30 -52 -30 -111 0 -89
32 -141 108 -177 69 -32 129 -31 196 2 87 44 126 130 101 222 -13 50 -66 113
-114 136 -50 23 -133 21 -186 -6z"/>
<path d="M6062 8190 c-87 -80 -129 -126 -125 -135 3 -8 10 -15 15 -15 12 0
268 250 268 262 0 24 -39 -4 -158 -112z"/>
<path d="M5639 7743 c-44 -68 -96 -97 -220 -127 -147 -36 -150 -37 -119 -46
44 -14 165 -10 221 6 68 20 144 93 155 149 10 54 -8 62 -37 18z"/>
<path d="M7084 7823 c-27 -21 -173 -137 -324 -258 -151 -122 -284 -226 -295
-232 -11 -6 -17 -14 -13 -18 17 -17 979 -275 1026 -275 13 0 22 6 22 15 0 11
-102 263 -155 380 -7 17 -45 102 -84 190 -87 195 -103 228 -117 232 -6 2 -33
-13 -60 -34z m110 -219 c12 -30 5 -45 -93 -216 -97 -170 -99 -173 -132 -173
-45 0 -49 23 -13 89 61 113 158 282 172 299 19 21 58 22 66 1z m-230 -36 c14
-23 -18 -57 -84 -88 -28 -13 -50 -28 -50 -34 0 -6 18 -31 40 -56 41 -47 48
-68 29 -87 -18 -18 -55 5 -117 70 -49 53 -61 79 -44 103 11 16 98 73 145 94
48 23 65 22 81 -2z m300 -123 c42 -62 75 -132 76 -157 0 -9 -9 -20 -21 -23
-31 -10 -193 -33 -198 -29 -3 2 3 20 12 39 14 29 23 36 57 41 22 4 43 10 45
14 3 5 -6 28 -20 52 -14 23 -25 48 -25 55 0 21 19 63 29 63 5 0 25 -25 45 -55z"/>
<path d="M4839 7255 c-148 -18 -343 -58 -488 -100 -132 -38 -391 -134 -391
-144 0 -3 38 -21 84 -38 l84 -33 93 39 c450 185 902 234 1389 150 205 -35 410
-97 572 -171 67 -30 68 -30 103 -13 20 9 55 25 77 35 l41 18 -30 16 c-40 20
-159 67 -253 100 -186 64 -466 121 -709 146 -137 13 -440 11 -572 -5z"/>
<path d="M3280 6300 c-206 -44 -335 -228 -379 -545 -14 -100 -14 -260 0 -327
37 -174 147 -301 287 -334 60 -14 150 -17 192 -5 l24 7 -34 21 c-19 12 -80 67
-135 122 l-99 101 98 92 c55 51 103 94 107 96 5 2 33 -16 62 -40 30 -24 97
-78 149 -120 88 -72 118 -90 118 -70 0 4 11 72 25 152 86 500 41 761 -143 831
-65 24 -200 34 -272 19z"/>
<path d="M4094 5448 c-34 -76 -95 -161 -171 -239 l-74 -76 39 -32 40 -31 30
47 c46 72 100 185 133 280 33 92 34 120 3 51z"/>
<path d="M6790 6299 c-228 -26 -365 -178 -416 -464 -86 -485 77 -789 411 -761
86 7 99 12 73 27 -36 20 -204 167 -230 201 l-27 36 104 96 105 97 158 -120
c87 -67 163 -121 168 -121 20 0 67 250 84 446 23 268 -35 460 -159 523 -73 38
-169 52 -271 40z"/>
<path d="M7619 5533 c-55 -153 -115 -249 -218 -350 l-72 -71 44 -31 c50 -34
48 -35 99 44 71 112 118 230 158 403 10 39 3 42 -11 5z"/>
<path d="M2359 4313 c-47 -29 -64 -70 -64 -155 0 -67 3 -79 24 -102 33 -35 98
-37 128 -3 66 72 79 199 25 252 -29 29 -74 33 -113 8z"/>
<path d="M5765 4121 c-44 -19 -60 -50 -63 -126 -5 -91 14 -136 66 -161 31 -15
39 -15 61 -3 13 8 33 27 45 42 39 52 23 194 -26 234 -20 17 -60 23 -83 14z"/>
<path d="M4371 4107 c-43 -22 -65 -62 -69 -130 -3 -50 0 -72 17 -104 11 -22
27 -43 36 -47 77 -29 135 34 135 149 0 64 -23 119 -57 134 -30 14 -32 14 -62
-2z"/>
<path d="M3052 3979 c-22 -7 -32 -15 -30 -26 9 -47 88 -37 88 12 0 27 -7 28
-58 14z"/>
<path d="M6490 3927 c-30 -15 -39 -54 -15 -63 30 -12 65 13 65 46 0 33 -11 37
-50 17z"/>
<path d="M5008 3963 c-33 -39 -31 -43 21 -43 44 0 51 3 51 20 0 18 -26 40 -48
40 -5 0 -16 -8 -24 -17z"/>
<path d="M3700 3220 c0 -19 6 -20 111 -20 100 0 110 2 107 18 -3 15 -18 17
-111 20 -102 3 -107 2 -107 -18z"/>
<path d="M3692 3109 l3 -24 198 -3 c172 -2 198 0 203 13 4 9 5 17 3 19 -2 2
-96 7 -207 11 l-204 7 4 -23z"/>
<path d="M3700 2976 c0 -8 15 -17 35 -20 39 -8 55 -2 55 20 0 10 -12 14 -45
14 -32 0 -45 -4 -45 -14z"/>
<path d="M3840 2970 c0 -19 7 -20 98 -20 53 0 141 -3 195 -7 l97 -6 0 26 0 27
-195 0 c-188 0 -195 -1 -195 -20z"/>
<path d="M3740 2861 c-52 -9 -47 -35 8 -39 36 -3 42 0 42 17 0 25 -7 28 -50
22z"/>
<path d="M3850 2840 c0 -19 7 -20 120 -20 113 0 120 1 120 20 0 19 -7 20 -120
20 -113 0 -120 -1 -120 -20z"/>
<path d="M4821 3216 c-73 -26 -130 -128 -117 -209 13 -82 57 -139 123 -163
117 -41 244 16 273 124 24 92 -33 213 -117 248 -39 17 -116 17 -162 0z m128
-32 c17 -4 31 -12 31 -19 0 -38 -120 -95 -197 -95 -31 0 -34 2 -27 23 22 72
101 109 193 91z"/>
<path d="M2810 7731 c-69 -32 -276 -129 -460 -216 -184 -86 -420 -195 -525
-242 -215 -96 -501 -235 -528 -256 -17 -14 -15 -21 34 -123 85 -180 232 -509
309 -689 40 -93 83 -191 96 -218 30 -58 25 -59 224 33 80 37 155 71 168 75
l23 7 -20 -39 c-11 -22 -25 -44 -33 -49 -7 -5 -95 -49 -195 -98 -158 -77 -186
-88 -216 -82 -30 6 -38 13 -48 44 -33 101 -269 650 -419 976 l-32 69 -40 -40
-40 -40 41 -81 c23 -45 41 -86 41 -92 0 -5 -31 -74 -69 -152 -134 -278 -261
-637 -330 -937 -24 -103 -82 -413 -78 -417 4 -4 125 -34 139 -34 11 0 19 28
32 103 76 440 168 779 285 1049 71 164 91 208 96 208 3 0 18 -29 34 -65 l30
-65 -30 -71 c-86 -209 -170 -483 -218 -711 -30 -141 -81 -432 -81 -460 0 -11
30 -21 103 -37 56 -13 109 -25 118 -27 13 -3 17 24 28 193 7 109 16 201 20
205 15 16 484 -72 701 -132 80 -22 147 -40 151 -40 3 0 1 30 -4 68 -13 94 -3
371 18 467 55 265 166 477 340 650 219 220 512 354 853 390 34 4 62 9 62 11 0
5 -166 369 -300 656 -81 174 -130 267 -140 268 -8 0 -71 -27 -140 -59z m-943
-752 c131 -16 239 -32 241 -34 2 -2 -36 -66 -85 -142 -49 -76 -114 -177 -144
-225 -30 -48 -57 -88 -62 -88 -4 0 -24 15 -44 33 l-36 34 92 142 c51 79 94
148 97 155 3 7 -6 12 -21 14 -13 1 -64 6 -112 12 -49 6 -122 14 -163 17 -41 3
-78 11 -82 17 -10 14 -10 80 -1 89 12 12 79 7 320 -24z m803 -92 c29 -55 33
-51 -80 -98 -241 -102 -365 -149 -394 -149 -16 0 -51 79 -39 91 16 15 458 208
473 206 8 -1 26 -24 40 -50z m-1271 -702 c21 -62 116 -303 150 -377 34 -74 53
-91 125 -110 46 -12 53 -11 150 23 55 20 110 40 120 44 16 7 18 5 13 -8 -4
-10 -12 -57 -19 -105 -6 -48 -12 -88 -13 -89 -1 -2 -116 24 -256 56 -140 33
-297 67 -349 76 -52 10 -96 19 -98 20 -4 3 26 135 49 220 34 119 102 307 108
298 4 -4 13 -26 20 -48z"/>
<path d="M1387 5280 c-4 -35 -7 -114 -7 -175 0 -110 1 -113 24 -119 13 -3 167
-35 342 -70 329 -67 528 -111 560 -123 16 -6 16 -3 -4 28 -45 68 -96 176 -126
268 l-31 94 -150 44 c-178 52 -420 102 -526 110 l-76 6 -6 -63z"/>
<path d="M8595 5309 c-170 -29 -532 -115 -596 -142 -29 -12 -39 -25 -67 -93
-18 -43 -32 -84 -32 -89 0 -6 33 -43 73 -83 l73 -72 134 29 c74 16 260 53 414
82 l279 54 -7 125 c-4 69 -9 146 -13 173 l-6 47 -41 -1 c-22 0 -117 -14 -211
-30z"/>
</g>
</svg>
